# xmcd
#
# Track frame offsets:
#	150
#	22775
#	46204
#	69528
#	92982
#	116264
#	139540
#	162868
#	186126
#	209396
#	232634
#	255916
#	279261
#	302553
#	325820
#
# Disc length: 4653 seconds
#
# Revision: 0
# Processed by: cddbd v1.5.2PL0 Copyright (c) Steve Scherf et al.
# Submitted via: EasyCDDAExtractor 10.0.2.1
#
DISCID=b5122b0f
DTITLE=LaVerne Tripp - A Song And A Prayer
DYEAR=2006
DGENRE=Gospel
TTITLE0=12/4
TTITLE1=12/5
TTITLE2=12/6
TTITLE3=12/7
TTITLE4=12/8
TTITLE5=12/11
TTITLE6=12/12
TTITLE7=12/13
TTITLE8=12/14
TTITLE9=12/15
TTITLE10=12/18
TTITLE11=12/19
TTITLE12=12/20
TTITLE13=12/21
TTITLE14=12/22
EXTD=
EXTT0=
EXTT1=
EXTT2=
EXTT3=
EXTT4=
EXTT5=
EXTT6=
EXTT7=
EXTT8=
EXTT9=
EXTT10=
EXTT11=
EXTT12=
EXTT13=
EXTT14=
PLAYORDER=
